:FULLY-SPECIFIED
:FORCE-ALL-JOINTS-BE-3DOF
:DEGREES
1020
root -0.425218 14.9914 -31.1069 0.0177187 -6.88812 1.08173
lfemur -22.9541 8.41354 -7.53257
ltibia 54.6652 -0 0
lfoot -14.4152 17.8706 -1.05433
ltoes -18.1441 0 0
rfemur -37.9759 -11.1521 7.38352
rtibia 49.1888 -0 0
rfoot 5.88184 -6.88512 3.89921
rtoes -0.622154 0 0
lowerback 13.857 1.6992 -4.22262
upperback -0.983103 1.7458 2.13087
thorax -8.77088 1.09225 4.3043
lowerneck -3.296 -0.533811 -4.92485
upperneck 7.74133 -0.560738 2.29822
head 3.48009 -0.378741 1.4462
lclavicle -6.00849e-15 -8.67687e-15 -5.35094e-30
lhumerus -4.36381 -38.1668 84.0018
lradius 90.5714 -0 0
lwrist 7.13354 0 0
lhand -31.229 37.1224 0.0876261
lfingers 7.12502 -0 0
lthumb -4.50375 67.0348 0.0863203
rclavicle -6.00849e-15 -8.67687e-15 -5.35094e-30
rhumerus -18.8006 27.8538 -78.2196
rradius 109.864 -0 0
rwrist -45.1026 0 0
rhand 0.526185 -23.7363 -0.435701
rfingers 7.12502 -0 0
rthumb 26.0775 -51.7998 -0.364657
1021
root -0.416707 14.9918 -31.0634 -0.00799623 -6.63626 1.09715
lfemur -22.8782 8.3526 -7.63841
ltibia 54.7361 -0 0
lfoot -14.5665 17.9152 -1.05121
ltoes -18.1731 0 0
rfemur -38.0959 -11.1032 7.36581
rtibia 49.0941 -0 0
rfoot 6.07231 -6.75243 3.8875
rtoes -0.515915 0 0
lowerback 13.8535 1.68426 -4.25673
upperback -0.981183 1.72078 2.13568
thorax -8.76624 1.08185 4.33454
lowerneck -3.2816 -0.592321 -4.97123
upperneck 7.74692 -0.640398 2.33787
head 3.48017 -0.418079 1.46279
lclavicle -5.47765e-15 -8.61303e-15 -5.33527e-30
lhumerus -4.39514 -38.3835 84.1486
lradius 90.7617 -0 0
lwrist 7.36 0 0
lhand -31.2069 37.1475 0.0873693
lfingers 7.12502 -0 0
lthumb -4.48243 67.0605 0.0860673
rclavicle -5.47765e-15 -8.61303e-15 -5.33527e-30
rhumerus -18.508 27.8802 -78.1391
rradius 109.806 -0 0
rwrist -44.7993 0 0
rhand 0.577208 -23.7905 -0.434421
rfingers 7.12502 -0 0
rthumb 26.1263 -51.8472 -0.363587
1022
root -0.408197 14.9922 -31.0199 -0.03363 -6.38439 1.11245
lfemur -22.8022 8.2918 -7.74431
ltibia 54.8069 -0 0
lfoot -14.7178 17.9598 -1.04797
ltoes -18.2022 0 0
rfemur -38.2159 -11.0543 7.34801
rtibia 48.9993 -0 0
rfoot 6.26274 -6.61978 3.87535
rtoes -0.409677 0 0
lowerback 13.85 1.66933 -4.29083
upperback -0.979265 1.69576 2.14049
thorax -8.7616 1.07144 4.36477
lowerneck -3.26715 -0.65082 -5.01763
upperneck 7.75245 -0.720062 2.37752
head 3.48024 -0.457418 1.47937
lclavicle -4.94682e-15 -8.54918e-15 -5.319e-30
lhumerus -4.42727 -38.6001 84.2961
lradius 90.952 -0 0
lwrist 7.58646 0 0
lhand -31.1848 37.1727 0.0871028
lfingers 7.12502 -0 0
lthumb -4.4611 67.0861 0.0858048
rclavicle -4.94682e-15 -8.54918e-15 -5.319e-30
rhumerus -18.2152 27.9063 -78.0585
rradius 109.748 -0 0
rwrist -44.496 0 0
rhand 0.628229 -23.8447 -0.433094
rfingers 7.12502 -0 0
rthumb 26.1752 -51.8946 -0.362476
1023
root -0.399687 14.9925 -30.9763 -0.0591838 -6.13252 1.12762
lfemur -22.726 8.23114 -7.85028
ltibia 54.8777 -0 0
lfoot -14.869 18.0043 -1.04461
ltoes -18.2312 0 0
rfemur -38.3359 -11.0054 7.3301
rtibia 48.9046 -0 0
rfoot 6.45314 -6.48718 3.86276
rtoes -0.303439 0 0
lowerback 13.8465 1.65439 -4.32494
upperback -0.97735 1.67073 2.1453
thorax -8.75696 1.06103 4.395
lowerneck -3.25266 -0.709307 -5.06404
upperneck 7.75792 -0.799729 2.41715
head 3.4803 -0.496756 1.49596
lclavicle -4.41599e-15 -8.48534e-15 -5.30214e-30
lhumerus -4.46022 -38.8167 84.4441
lradius 91.1424 -0 0
lwrist 7.81291 0 0
lhand -31.1627 37.1978 0.0868266
lfingers 7.12502 -0 0
lthumb -4.43978 67.1118 0.0855327
rclavicle -4.41599e-15 -8.48534e-15 -5.30214e-30
rhumerus -17.9224 27.932 -77.9776
rradius 109.69 -0 0
rwrist -44.1927 0 0
rhand 0.67925 -23.8989 -0.431718
rfingers 7.12502 -0 0
rthumb 26.224 -51.9419 -0.361325
